<?xml version="1.0" encoding="utf-8"?>
<!-- Generator: Adobe Illustrator 22.1.0, SVG Export Plug-In . SVG Version: 6.00 Build 0)  -->
<svg version="1.1" id="Camada_1" xmlns="http://www.w3.org/2000/svg" xmlns:xlink="http://www.w3.org/1999/xlink" x="0px" y="0px"
	 viewBox="0 0 24 24" style="enable-background:new 0 0 24 24;" xml:space="preserve">
<style type="text/css">
	.st0{fill:#38599c;}
</style>
<path class="st0" d="M7.5,21.5l1.4-1.3l3.8,3.8L12,24C5.7,24,0.6,19.2,0.1,13h1.5C1.9,16.8,4.3,19.9,7.5,21.5 M16.5,2.5l-1.4,1.3
	L11.3,0L12,0c6.3,0,11.4,4.8,12,11h-1.5C22.1,7.2,19.8,4.1,16.5,2.5 M6,17c0-2,4-3.1,6-3.1s6,1.1,6,3.1v1H6V17 M15,9
	c0,1.7-1.3,3-3,3s-3-1.3-3-3s1.3-3,3-3S15,7.3,15,9z"/>
</svg>
