<?xml version="1.0" encoding="utf-8"?>
<!-- Generator: Adobe Illustrator 22.1.0, SVG Export Plug-In . SVG Version: 6.00 Build 0)  -->
<svg version="1.1" id="Camada_1" xmlns="http://www.w3.org/2000/svg" xmlns:xlink="http://www.w3.org/1999/xlink" x="0px" y="0px"
	 viewBox="0 0 24 24" style="enable-background:new 0 0 24 24;" xml:space="preserve">
<style type="text/css">
	.st0{fill:#38599c;}
</style>
<path class="st0" d="M11,10v2h-1v2H8v-2H5.8c-0.4,1.2-1.5,2-2.8,2c-1.7,0-3-1.3-3-3s1.3-3,3-3c1.3,0,2.4,0.8,2.8,2H11 M3,10
	c-0.6,0-1,0.4-1,1s0.4,1,1,1s1-0.4,1-1S3.6,10,3,10 M16,14c2.7,0,8,1.3,8,4v2H8v-2C8,15.3,13.3,14,16,14 M16,12c-2.2,0-4-1.8-4-4
	s1.8-4,4-4s4,1.8,4,4S18.2,12,16,12z"/>
</svg>
