<?xml version="1.0" encoding="utf-8"?>
<!-- Generator: Adobe Illustrator 22.1.0, SVG Export Plug-In . SVG Version: 6.00 Build 0)  -->
<svg version="1.1" id="Camada_1" xmlns="http://www.w3.org/2000/svg" xmlns:xlink="http://www.w3.org/1999/xlink" x="0px" y="0px"
	 viewBox="0 0 24 24" style="enable-background:new 0 0 24 24;" xml:space="preserve">
<style type="text/css">
	.st0{fill:#38599c;}
</style>
<path class="st0" d="M12,6c-1.7,0-3,1.3-3,3s1.3,3,3,3s3-1.3,3-3S13.7,6,12,6 M6,8.2c-1.4,0-2.5,1.1-2.5,2.5s1.1,2.5,2.5,2.5
	c0.9,0,1.7-0.5,2.1-1.1C7.4,11.2,7,10.1,7,9c0-0.2,0-0.4,0-0.6C6.7,8.3,6.4,8.2,6,8.2 M18,8.2c-0.4,0-0.7,0.1-1,0.2
	c0,0.2,0,0.4,0,0.6c0,1.1-0.4,2.2-1.1,3c0.4,0.7,1.2,1.1,2.1,1.1c1.4,0,2.5-1.1,2.5-2.5S19.4,8.2,18,8.2 M12,14c-2,0-6,1-6,3v2h12
	v-2C18,15,14,14,12,14 M4.7,15C3,15.3,1,16,1,17.3V19h3v-2C4,16.2,4.3,15.5,4.7,15 M19.3,15c0.4,0.6,0.7,1.2,0.7,2v2h3v-1.7
	C23,16,21,15.3,19.3,15z"/>
</svg>
