<?xml version="1.0" encoding="utf-8"?>
<!-- Generator: Adobe Illustrator 22.1.0, SVG Export Plug-In . SVG Version: 6.00 Build 0)  -->
<svg version="1.1" id="Camada_1" xmlns="http://www.w3.org/2000/svg" xmlns:xlink="http://www.w3.org/1999/xlink" x="0px" y="0px"
	 viewBox="0 0 24 24" style="enable-background:new 0 0 24 24;" xml:space="preserve">
<style type="text/css">
	.st0{fill:#38599c;}
</style>
<path class="st0" d="M12,2C6.5,2,2,6.5,2,12s4.5,10,10,10s10-4.5,10-10h-2c0,4.4-3.6,8-8,8s-8-3.6-8-8s3.6-8,8-8V2 M18.8,3
	c-0.2,0-0.4,0.1-0.5,0.2l-1.2,1.2l2.5,2.5l1.2-1.2c0.3-0.3,0.3-0.7,0-0.9l-1.5-1.5C19.1,3.1,19,3,18.8,3 M16.4,5.1L9,12.5V15h2.5
	l7.4-7.4L16.4,5.1z"/>
</svg>
