<?xml version="1.0" encoding="utf-8"?>
<!-- Generator: Adobe Illustrator 22.1.0, SVG Export Plug-In . SVG Version: 6.00 Build 0)  -->
<svg version="1.1" id="Camada_1" xmlns="http://www.w3.org/2000/svg" xmlns:xlink="http://www.w3.org/1999/xlink" x="0px" y="0px"
	 viewBox="0 0 24 24" style="enable-background:new 0 0 24 24;" xml:space="preserve">
<style type="text/css">
	.st0{fill:#38599c;}
</style>
<path class="st0" d="M19,3h-4.2c-0.4-1.2-1.5-2-2.8-2S9.6,1.8,9.2,3H5C3.9,3,3,3.9,3,5v14c0,1.1,0.9,2,2,2h14c1.1,0,2-0.9,2-2V5
	C21,3.9,20.1,3,19,3 M12,3c0.6,0,1,0.4,1,1s-0.4,1-1,1s-1-0.4-1-1S11.4,3,12,3 M5,13.5h2.2l3.3-6.4l0.9,7l2.5-3.2l2.6,2.6H19V15
	h-3.1l-1.8-1.8l-3.7,4.7l-0.8-5.8L8.1,15H5V13.5z"/>
</svg>
