<svg id="Layer_1" data-name="Layer 1" xmlns="http://www.w3.org/2000/svg" viewBox="0 0 279.23 197.59"><defs><style>.cls-1{fill:#6a84c1;}.cls-2{fill:#faeda4;}.cls-3{fill:#cf3f52;}.cls-4{fill:#5ca37b;}</style></defs><title>logo</title><path class="cls-1" d="M286.35,222.13h4.28V223h-3.24v2.64h3v.85h-3v3.61h-1Z" transform="translate(-135.81 -90.62)"/><path class="cls-1" d="M294,230.22a2.72,2.72,0,0,1-2.74-2.94,2.79,2.79,0,0,1,2.83-3,2.7,2.7,0,0,1,2.75,2.93,2.8,2.8,0,0,1-2.83,3.05Zm0-.78c1,0,1.73-.94,1.73-2.24,0-1-.48-2.18-1.71-2.18s-1.75,1.13-1.75,2.22c0,1.25.71,2.2,1.71,2.2Z" transform="translate(-135.81 -90.62)"/><path class="cls-1" d="M298.2,226.15c0-.67,0-1.25-.05-1.78h.91l.05,1.12h0a1.73,1.73,0,0,1,1.6-1.25l.28,0v1l-.35,0a1.47,1.47,0,0,0-1.4,1.32,3.91,3.91,0,0,0,0,.49v3.06h-1Z" transform="translate(-135.81 -90.62)"/><path class="cls-1" d="M302.11,225.92c0-.61,0-1.08-.05-1.55H303l0,.92h0a2,2,0,0,1,1.81-1,1.69,1.69,0,0,1,1.61,1.15h0a2.31,2.31,0,0,1,.65-.75,1.91,1.91,0,0,1,1.25-.4c.77,0,1.89.5,1.89,2.48v3.37h-1v-3.24c0-1.11-.42-1.76-1.24-1.76a1.35,1.35,0,0,0-1.24.93,1.83,1.83,0,0,0-.09.52v3.55h-1v-3.44c0-.91-.4-1.56-1.19-1.56a1.43,1.43,0,0,0-1.29,1,1.4,1.4,0,0,0-.08.51v3.45h-1Z" transform="translate(-135.81 -90.62)"/><path class="cls-1" d="M316,228.72a9.54,9.54,0,0,0,.08,1.37h-.93l-.09-.72h0a2.14,2.14,0,0,1-1.75.85,1.64,1.64,0,0,1-1.75-1.65c0-1.38,1.23-2.13,3.44-2.12v-.12a1.17,1.17,0,0,0-1.3-1.32,2.77,2.77,0,0,0-1.5.42l-.23-.69a3.65,3.65,0,0,1,1.89-.5c1.76,0,2.18,1.19,2.18,2.34Zm-1-1.55c-1.14,0-2.43.18-2.43,1.29a.91.91,0,0,0,1,1,1.44,1.44,0,0,0,1.41-1,1.2,1.2,0,0,0,.05-.33Z" transform="translate(-135.81 -90.62)"/><path class="cls-1" d="M317.66,221.7h1v8.39h-1Z" transform="translate(-135.81 -90.62)"/><path class="cls-1" d="M320.94,223.4a.62.62,0,0,1-.62-.64.64.64,0,1,1,1.28,0,.61.61,0,0,1-.64.64Zm-.49,6.69v-5.72h1v5.72Z" transform="translate(-135.81 -90.62)"/><path class="cls-1" d="M322.56,229.48l2.59-3.36c.26-.32.48-.59.75-.9v0h-3.1v-.83h4.36V225l-2.57,3.33c-.23.31-.47.6-.73.89v0h3.34v.83h-4.64Z" transform="translate(-135.81 -90.62)"/><path class="cls-1" d="M332.3,228.72a9.54,9.54,0,0,0,.08,1.37h-.93l-.1-.72h0a2.15,2.15,0,0,1-1.75.85,1.63,1.63,0,0,1-1.75-1.65c0-1.38,1.23-2.13,3.44-2.12v-.12A1.17,1.17,0,0,0,330,225a2.75,2.75,0,0,0-1.5.42l-.24-.69a3.65,3.65,0,0,1,1.89-.5c1.76,0,2.19,1.19,2.19,2.34Zm-1-1.55c-1.13,0-2.42.18-2.42,1.29a.91.91,0,0,0,1,1,1.43,1.43,0,0,0,1.4-1,.91.91,0,0,0,0-.33Z" transform="translate(-135.81 -90.62)"/><path class="cls-1" d="M334,225.92c0-.61,0-1.08,0-1.55h.92l.06.93h0a2.12,2.12,0,0,1,1.89-1.06c.79,0,2,.47,2,2.43v3.42h-1v-3.3c0-.92-.34-1.7-1.32-1.7a1.5,1.5,0,0,0-1.4,1.06,1.81,1.81,0,0,0-.07.49v3.45h-1Z" transform="translate(-135.81 -90.62)"/><path class="cls-1" d="M345.46,221.7v6.91c0,.51,0,1.09,0,1.48h-.93l0-1h0a2.1,2.1,0,0,1-1.94,1.13c-1.38,0-2.45-1.17-2.45-2.91,0-1.91,1.18-3.07,2.56-3.07a1.91,1.91,0,0,1,1.73.86h0v-3.4Zm-1,5a1.73,1.73,0,0,0-.05-.45,1.52,1.52,0,0,0-1.5-1.19c-1.07,0-1.71.94-1.71,2.19s.58,2.13,1.69,2.13a1.57,1.57,0,0,0,1.52-1.25,1.52,1.52,0,0,0,.05-.44Z" transform="translate(-135.81 -90.62)"/><path class="cls-1" d="M349.51,230.22a2.73,2.73,0,0,1-2.74-2.94,2.8,2.8,0,0,1,2.84-3,2.7,2.7,0,0,1,2.75,2.93,2.81,2.81,0,0,1-2.84,3.05Zm.05-.78c1,0,1.73-.94,1.73-2.24,0-1-.48-2.18-1.71-2.18s-1.75,1.13-1.75,2.22c0,1.25.71,2.2,1.72,2.2Z" transform="translate(-135.81 -90.62)"/><path class="cls-1" d="M395.32,228.89a2.92,2.92,0,0,0,1.38.4c.75,0,1.1-.36,1.1-.85s-.29-.75-1.05-1c-1-.38-1.52-.95-1.52-1.62a1.77,1.77,0,0,1,2-1.68,2.65,2.65,0,0,1,1.39.35l-.25.75a2.3,2.3,0,0,0-1.17-.33c-.61,0-.94.35-.94.78s.33.68,1.07,1c1,.36,1.5.86,1.5,1.71,0,1-.79,1.72-2.12,1.72a3.22,3.22,0,0,1-1.61-.4Z" transform="translate(-135.81 -90.62)"/><path class="cls-1" d="M355.5,225.85c0-.6,0-1.07-.05-1.54h.92l.06.93h0a2.11,2.11,0,0,1,1.89-1.06c.79,0,2,.47,2,2.43V230h-1v-3.29c0-.92-.35-1.7-1.33-1.7a1.49,1.49,0,0,0-1.39,1.06,1.47,1.47,0,0,0-.07.48V230h-1Z" transform="translate(-135.81 -90.62)"/><path class="cls-1" d="M362.65,227.35a1.81,1.81,0,0,0,2,2,3.82,3.82,0,0,0,1.58-.29l.19.74a4.6,4.6,0,0,1-1.91.37,2.67,2.67,0,0,1-2.82-2.88,2.78,2.78,0,0,1,2.7-3.08,2.41,2.41,0,0,1,2.35,2.69,2.77,2.77,0,0,1,0,.48Zm3-.74a1.47,1.47,0,0,0-1.43-1.69,1.71,1.71,0,0,0-1.59,1.69Z" transform="translate(-135.81 -90.62)"/><path class="cls-1" d="M372.87,229.18a3.35,3.35,0,0,1-.82,2.62,3.14,3.14,0,0,1-2.09.69,3.77,3.77,0,0,1-1.9-.47l.26-.81a3.11,3.11,0,0,0,1.68.46c1.06,0,1.84-.55,1.84-2V229h0a2,2,0,0,1-1.81,1,2.57,2.57,0,0,1-2.44-2.8,2.73,2.73,0,0,1,2.59-3,1.88,1.88,0,0,1,1.78,1h0l0-.86h.92c0,.4,0,.87,0,1.55Zm-1-2.63a1.65,1.65,0,0,0-.06-.46,1.48,1.48,0,0,0-1.46-1.11c-1,0-1.7.84-1.7,2.17,0,1.11.58,2.06,1.69,2.06a1.49,1.49,0,0,0,1.44-1.08,1.63,1.63,0,0,0,.09-.55Z" transform="translate(-135.81 -90.62)"/><path class="cls-1" d="M376.91,230.15a2.72,2.72,0,0,1-2.74-2.94,2.79,2.79,0,0,1,2.83-3,2.7,2.7,0,0,1,2.75,2.92,2.8,2.8,0,0,1-2.83,3.05Zm0-.78c1,0,1.73-.93,1.73-2.23,0-1-.48-2.19-1.71-2.19s-1.75,1.14-1.75,2.23c0,1.25.71,2.19,1.71,2.19Zm1.55-7.53-1.44,1.69h-.73l1-1.69Z" transform="translate(-135.81 -90.62)"/><path class="cls-1" d="M385.14,229.81a4,4,0,0,1-1.64.33,2.71,2.71,0,0,1-2.84-2.92,2.91,2.91,0,0,1,3.07-3,3.37,3.37,0,0,1,1.44.3l-.24.79a2.55,2.55,0,0,0-1.2-.27,2,2,0,0,0-2,2.16,2,2,0,0,0,2,2.14A3,3,0,0,0,385,229Z" transform="translate(-135.81 -90.62)"/><path class="cls-1" d="M386.86,223.34a.65.65,0,1,1,.66-.64.62.62,0,0,1-.66.64Zm-.5,6.68v-5.71h1V230Z" transform="translate(-135.81 -90.62)"/><path class="cls-1" d="M391.45,230.15a2.72,2.72,0,0,1-2.74-2.94,2.8,2.8,0,0,1,2.84-3,2.7,2.7,0,0,1,2.75,2.92,2.8,2.8,0,0,1-2.84,3.05Zm.05-.78c1,0,1.74-.93,1.74-2.23,0-1-.49-2.19-1.72-2.19s-1.74,1.14-1.74,2.23c0,1.25.7,2.19,1.71,2.19Z" transform="translate(-135.81 -90.62)"/><path class="cls-1" d="M193.16,96.93H228.4v40a3.22,3.22,0,0,0,3.27,3.16h41.51v36.62h6.54V136.93a3.08,3.08,0,0,0-1-2.23L234,91.55a3.33,3.33,0,0,0-2.31-.93H193.16Zm41.78,4.46,33.61,32.39H234.94Z" transform="translate(-135.81 -90.62)"/><path class="cls-2" d="M186,281.91h-43.6V193h-6.55v92a3.23,3.23,0,0,0,3.28,3.16H186Z" transform="translate(-135.81 -90.62)"/><path class="cls-3" d="M142.36,185.82V96.93H186V90.62H139.09a3.23,3.23,0,0,0-3.28,3.16v92Z" transform="translate(-135.81 -90.62)"/><path class="cls-4" d="M273.18,218.06v63.85h-80v6.31h83.29a3.22,3.22,0,0,0,3.27-3.16v-67Z" transform="translate(-135.81 -90.62)"/><path class="cls-4" d="M158.08,181.76h17v3.42h-12.9V195.7h11.92v3.38H162.21v14.31h-4.13Z" transform="translate(-135.81 -90.62)"/><path class="cls-4" d="M187,213.91c-6.1,0-10.89-4.51-10.89-11.69,0-7.6,5-12.06,11.26-12.06,6.53,0,10.94,4.74,10.94,11.64,0,8.45-5.87,12.11-11.26,12.11Zm.19-3.1c3.94,0,6.9-3.71,6.9-8.87,0-3.85-1.93-8.68-6.81-8.68s-7,4.5-7,8.82c0,5,2.82,8.73,6.81,8.73Z" transform="translate(-135.81 -90.62)"/><path class="cls-4" d="M201.87,197.76c0-2.67-.05-5-.19-7.08h3.61l.19,4.45h.14a6.87,6.87,0,0,1,6.34-5,10,10,0,0,1,1.13.09v3.9a11.4,11.4,0,0,0-1.41-.09c-2.91,0-5,2.2-5.54,5.25a12.09,12.09,0,0,0-.14,1.93v12.15h-4.13Z" transform="translate(-135.81 -90.62)"/><path class="cls-4" d="M215.76,196.82c0-2.39-.09-4.27-.19-6.14h3.62l.18,3.66h.14a7.86,7.86,0,0,1,7.19-4.18,6.71,6.71,0,0,1,6.38,4.55h.09a9.1,9.1,0,0,1,2.58-3,7.61,7.61,0,0,1,5-1.6c3.05,0,7.51,2,7.51,9.86v13.37h-4V200.53c0-4.41-1.64-7-4.93-7a5.42,5.42,0,0,0-4.92,3.71,7.22,7.22,0,0,0-.33,2.06v14.08h-4V199.73c0-3.61-1.59-6.19-4.74-6.19a5.7,5.7,0,0,0-5.12,4.13,5.78,5.78,0,0,0-.32,2v13.7h-4Z" transform="translate(-135.81 -90.62)"/><path class="cls-4" d="M269.27,208a38.86,38.86,0,0,0,.32,5.44h-3.7l-.38-2.86h-.14a8.41,8.41,0,0,1-6.95,3.38c-4.6,0-6.94-3.24-6.94-6.52,0-5.5,4.88-8.5,13.66-8.45v-.47c0-1.88-.52-5.31-5.17-5.26a11,11,0,0,0-6,1.69l-.94-2.77a14.76,14.76,0,0,1,7.51-2c7,0,8.69,4.74,8.69,9.29Zm-4-6.15c-4.51-.09-9.62.7-9.62,5.12a3.62,3.62,0,0,0,3.85,3.94,5.74,5.74,0,0,0,5.58-3.8,4.35,4.35,0,0,0,.19-1.32Z" transform="translate(-135.81 -90.62)"/><path class="cls-4" d="M274.24,180.07h4.13v33.32h-4.13Z" transform="translate(-135.81 -90.62)"/><path class="cls-1" d="M285.64,186.83a2.46,2.46,0,0,1-2.48-2.54,2.56,2.56,0,1,1,2.53,2.54Zm-2,26.56V190.68h4.13v22.71Z" transform="translate(-135.81 -90.62)"/><path class="cls-1" d="M290.43,211l10.28-13.38c1-1.26,1.92-2.34,3-3.56V194H291.37v-3.28h17.32v2.58L298.5,206.49c-.93,1.22-1.87,2.4-2.91,3.52v.1h13.29v3.28H290.43Z" transform="translate(-135.81 -90.62)"/><path class="cls-1" d="M327.46,208a38.75,38.75,0,0,0,.33,5.44h-3.71l-.37-2.86h-.14a8.41,8.41,0,0,1-6.95,3.38c-4.6,0-6.95-3.24-6.95-6.52,0-5.5,4.89-8.5,13.66-8.45v-.47c0-1.88-.51-5.31-5.16-5.26a11,11,0,0,0-6,1.69l-.94-2.77a14.76,14.76,0,0,1,7.51-2c7,0,8.68,4.74,8.68,9.29Zm-4-6.15c-4.51-.09-9.62.7-9.62,5.12a3.61,3.61,0,0,0,3.84,3.94,5.74,5.74,0,0,0,5.59-3.8,4.35,4.35,0,0,0,.19-1.32Z" transform="translate(-135.81 -90.62)"/><path class="cls-1" d="M332.53,182.18a60.46,60.46,0,0,1,8.73-.66c5.87,0,10.05,1.36,12.82,3.95s4.5,6.24,4.5,11.35-1.64,9.39-4.55,12.3-7.89,4.55-14,4.55a57.61,57.61,0,0,1-7.47-.37Zm4.13,28a26.28,26.28,0,0,0,4.13.19c8.73.05,13.47-4.88,13.47-13.42.05-7.47-4.17-12.21-12.81-12.21a23.62,23.62,0,0,0-4.79.42Z" transform="translate(-135.81 -90.62)"/><path class="cls-1" d="M374.54,213.91c-8.4,0-14.22-6.48-14.22-16,0-10.05,6.19-16.62,14.64-16.62,8.68,0,14.27,6.62,14.27,16,0,10.84-6.62,16.66-14.65,16.66Zm.23-3.33c6.48,0,10.14-6,10.14-13.15,0-6.28-3.28-12.86-10.09-12.86s-10.19,6.34-10.19,13.19c0,6.67,3.67,12.82,10.1,12.82Z" transform="translate(-135.81 -90.62)"/><path class="cls-1" d="M415,212.36a20.16,20.16,0,0,1-8.36,1.5c-8.91,0-15.58-5.63-15.58-16,0-9.91,6.71-16.57,16.52-16.57a18,18,0,0,1,7.51,1.36L414,186a14.51,14.51,0,0,0-6.34-1.31c-7.41,0-12.34,4.74-12.34,13,0,7.74,4.46,12.67,12.11,12.67a16.55,16.55,0,0,0,6.71-1.31Z" transform="translate(-135.81 -90.62)"/></svg>