<svg id="Layer_1" data-name="Layer 1" xmlns="http://www.w3.org/2000/svg" viewBox="0 0 256.97 33.84"><defs><style>.cls-1{fill:#5ca37b;}.cls-2{fill:#6a84c1;}</style></defs><title>FormalizaDOC</title><path class="cls-1" d="M158.08,181.76h17v3.42h-12.9V195.7h11.92v3.38H162.21v14.31h-4.13Z" transform="translate(-158.08 -180.07)"/><path class="cls-1" d="M187,213.91c-6.1,0-10.89-4.51-10.89-11.69,0-7.6,5-12.06,11.26-12.06,6.53,0,10.94,4.74,10.94,11.64,0,8.45-5.87,12.11-11.26,12.11Zm.19-3.1c3.94,0,6.9-3.71,6.9-8.87,0-3.85-1.93-8.68-6.81-8.68s-7,4.5-7,8.82c0,5,2.82,8.73,6.81,8.73Z" transform="translate(-158.08 -180.07)"/><path class="cls-1" d="M201.87,197.76c0-2.67-.05-5-.19-7.08h3.61l.19,4.45h.14a6.87,6.87,0,0,1,6.34-5,10,10,0,0,1,1.13.09v3.9a11.4,11.4,0,0,0-1.41-.09c-2.91,0-5,2.2-5.54,5.25a12.09,12.09,0,0,0-.14,1.93v12.15h-4.13Z" transform="translate(-158.08 -180.07)"/><path class="cls-1" d="M215.76,196.82c0-2.39-.09-4.27-.19-6.14h3.62l.18,3.66h.14a7.86,7.86,0,0,1,7.19-4.18,6.71,6.71,0,0,1,6.38,4.55h.09a9.1,9.1,0,0,1,2.58-3,7.61,7.61,0,0,1,5-1.6c3.05,0,7.51,2,7.51,9.86v13.37h-4V200.53c0-4.41-1.64-7-4.93-7a5.42,5.42,0,0,0-4.92,3.71,7.22,7.22,0,0,0-.33,2.06v14.08h-4V199.73c0-3.61-1.59-6.19-4.74-6.19a5.7,5.7,0,0,0-5.12,4.13,5.78,5.78,0,0,0-.32,2v13.7h-4Z" transform="translate(-158.08 -180.07)"/><path class="cls-1" d="M269.27,208a38.86,38.86,0,0,0,.32,5.44h-3.7l-.38-2.86h-.14a8.41,8.41,0,0,1-6.95,3.38c-4.6,0-6.94-3.24-6.94-6.52,0-5.5,4.88-8.5,13.66-8.45v-.47c0-1.88-.52-5.31-5.17-5.26a11,11,0,0,0-6,1.69l-.94-2.77a14.76,14.76,0,0,1,7.51-2c7,0,8.69,4.74,8.69,9.29Zm-4-6.15c-4.51-.09-9.62.7-9.62,5.12a3.62,3.62,0,0,0,3.85,3.94,5.74,5.74,0,0,0,5.58-3.8,4.35,4.35,0,0,0,.19-1.32Z" transform="translate(-158.08 -180.07)"/><path class="cls-1" d="M274.24,180.07h4.13v33.32h-4.13Z" transform="translate(-158.08 -180.07)"/><path class="cls-2" d="M285.64,186.83a2.46,2.46,0,0,1-2.48-2.54,2.56,2.56,0,1,1,2.53,2.54Zm-2,26.56V190.68h4.13v22.71Z" transform="translate(-158.08 -180.07)"/><path class="cls-2" d="M290.43,211l10.28-13.38c1-1.26,1.92-2.34,3-3.56V194H291.37v-3.28h17.32v2.58L298.5,206.49c-.93,1.22-1.87,2.4-2.91,3.52v.1h13.29v3.28H290.43Z" transform="translate(-158.08 -180.07)"/><path class="cls-2" d="M327.46,208a38.75,38.75,0,0,0,.33,5.44h-3.71l-.37-2.86h-.14a8.41,8.41,0,0,1-6.95,3.38c-4.6,0-6.95-3.24-6.95-6.52,0-5.5,4.89-8.5,13.66-8.45v-.47c0-1.88-.51-5.31-5.16-5.26a11,11,0,0,0-6,1.69l-.94-2.77a14.76,14.76,0,0,1,7.51-2c7,0,8.68,4.74,8.68,9.29Zm-4-6.15c-4.51-.09-9.62.7-9.62,5.12a3.61,3.61,0,0,0,3.84,3.94,5.74,5.74,0,0,0,5.59-3.8,4.35,4.35,0,0,0,.19-1.32Z" transform="translate(-158.08 -180.07)"/><path class="cls-2" d="M332.53,182.18a60.46,60.46,0,0,1,8.73-.66c5.87,0,10.05,1.36,12.82,3.95s4.5,6.24,4.5,11.35-1.64,9.39-4.55,12.3-7.89,4.55-14,4.55a57.61,57.61,0,0,1-7.47-.37Zm4.13,28a26.28,26.28,0,0,0,4.13.19c8.73.05,13.47-4.88,13.47-13.42.05-7.47-4.17-12.21-12.81-12.21a23.62,23.62,0,0,0-4.79.42Z" transform="translate(-158.08 -180.07)"/><path class="cls-2" d="M374.54,213.91c-8.4,0-14.22-6.48-14.22-16,0-10.05,6.19-16.62,14.64-16.62,8.68,0,14.27,6.62,14.27,16,0,10.84-6.62,16.66-14.65,16.66Zm.23-3.33c6.48,0,10.14-6,10.14-13.15,0-6.28-3.28-12.86-10.09-12.86s-10.19,6.34-10.19,13.19c0,6.67,3.67,12.82,10.1,12.82Z" transform="translate(-158.08 -180.07)"/><path class="cls-2" d="M415,212.36a20.16,20.16,0,0,1-8.36,1.5c-8.91,0-15.58-5.63-15.58-16,0-9.91,6.71-16.57,16.52-16.57a18,18,0,0,1,7.51,1.36L414,186a14.51,14.51,0,0,0-6.34-1.31c-7.41,0-12.34,4.74-12.34,13,0,7.74,4.46,12.67,12.11,12.67a16.55,16.55,0,0,0,6.71-1.31Z" transform="translate(-158.08 -180.07)"/></svg>